{
  "asset": {
    "generator": "Khronos glTF Blender I/O v3.6.28",
    "version": "2.0"
  },
  "extensionsUsed": [
    "KHR_materials_emissive_strength"
  ],
  "scene": 0,
  "scenes": [
    {
      "name": "Scene",
      "nodes": [
        3
      ]
    }
  ],
  "nodes": [
    {
      "mesh": 0,
      "name": "テキスト",
      "rotation": [
        0,
        -0.7071068286895752,
        0.7071068286895752,
        1.1520233300643667e-7
      ],
      "scale": [
        0.44445663690567017,
        0.39982181787490845,
        0.4444565773010254
      ],
      "translation": [
        0.8590524196624756,
        2.413909435272217,
        0
      ]
    },
    {
      "children": [
        0
      ],
      "mesh": 1,
      "name": "hair",
      "translation": [
        0,
        -0.05000000074505806,
        0
      ],
      "rotation": [
        0,
        0,
        0,
        1
      ],
      "scale": [
        1,
        1,
        1
      ]
    },
    {
      "children": [
        1
      ],
      "name": "Node_2"
    },
    {
      "children": [
        2
      ],
      "name": "blockbench_export"
    }
  ],
  "materials": [
    {
      "doubleSided": true,
      "emissiveFactor": [
        1,
        0,
        0.0016064838273450732
      ],
      "extensions": {
        "KHR_materials_emissive_strength": {
          "emissiveStrength": 8.10003662109375
        }
      },
      "name": "マテリアル",
      "pbrMetallicRoughness": {
        "baseColorFactor": [
          0.8000000715255737,
          0.00596079183742404,
          0,
          1
        ],
        "metallicFactor": 0,
        "roughnessFactor": 0.30000001192092896
      },
      "alphaMode": "OPAQUE"
    },
    {
      "alphaCutoff": 0.05000000074505806,
      "alphaMode": "MASK",
      "name": "Material_0",
      "pbrMetallicRoughness": {
        "baseColorTexture": {
          "index": 0,
          "texCoord": 0
        },
        "metallicFactor": 0,
        "baseColorFactor": [
          1,
          1,
          1,
          1
        ],
        "roughnessFactor": 1
      },
      "emissiveFactor": [
        0,
        0,
        0
      ],
      "doubleSided": false
    }
  ],
  "meshes": [
    {
      "name": "テキスト",
      "primitives": [
        {
          "attributes": {
            "POSITION": 0,
            "NORMAL": 1,
            "TEXCOORD_0": 2
          },
          "indices": 3,
          "material": 0,
          "mode": 4
        }
      ]
    },
    {
      "name": "Mesh_0",
      "primitives": [
        {
          "attributes": {
            "POSITION": 4,
            "NORMAL": 5,
            "TEXCOORD_0": 6
          },
          "indices": 7,
          "material": 1,
          "mode": 4
        }
      ]
    }
  ],
  "textures": [
    {
      "sampler": 0,
      "source": 0
    }
  ],
  "images": [
    {
      "mimeType": "image/png",
      "name": "Q386PXB5PY8XG0",
      "uri": "Q386PXB5PY8XG0.png"
    }
  ],
  "accessors": [
    {
      "bufferView": 0,
      "componentType": 5126,
      "count": 3174,
      "max": [
        3.8650002479553223,
        0,
        0.00900004617869854
      ],
      "min": [
        -1.9279016215758855e-15,
        -0.1881142109632492,
        -0.6820000410079956
      ],
      "type": "VEC3",
      "byteOffset": 0
    },
    {
      "bufferView": 1,
      "componentType": 5126,
      "count": 3174,
      "type": "VEC3",
      "byteOffset": 0
    },
    {
      "bufferView": 2,
      "componentType": 5126,
      "count": 3174,
      "type": "VEC2",
      "byteOffset": 0
    },
    {
      "bufferView": 3,
      "componentType": 5123,
      "count": 6288,
      "type": "SCALAR",
      "byteOffset": 0
    },
    {
      "bufferView": 4,
      "componentType": 5126,
      "count": 588,
      "max": [
        0.3330270051956177,
        2.360553026199341,
        0.837261974811554
      ],
      "min": [
        -0.42255899310112,
        0.9030119776725769,
        -0.3508630096912384
      ],
      "type": "VEC3",
      "byteOffset": 0
    },
    {
      "bufferView": 5,
      "componentType": 5126,
      "count": 588,
      "type": "VEC3",
      "byteOffset": 0
    },
    {
      "bufferView": 6,
      "componentType": 5126,
      "count": 588,
      "type": "VEC2",
      "byteOffset": 0
    },
    {
      "bufferView": 7,
      "componentType": 5123,
      "count": 780,
      "type": "SCALAR",
      "byteOffset": 0
    }
  ],
  "bufferViews": [
    {
      "buffer": 0,
      "byteLength": 38088,
      "byteOffset": 0,
      "target": 34962,
      "byteStride": 12
    },
    {
      "buffer": 0,
      "byteLength": 38088,
      "byteOffset": 38088,
      "target": 34962,
      "byteStride": 12
    },
    {
      "buffer": 0,
      "byteLength": 25392,
      "byteOffset": 76176,
      "target": 34962,
      "byteStride": 8
    },
    {
      "buffer": 0,
      "byteLength": 12576,
      "byteOffset": 101568,
      "target": 34963
    },
    {
      "buffer": 0,
      "byteLength": 7056,
      "byteOffset": 114144,
      "target": 34962,
      "byteStride": 12
    },
    {
      "buffer": 0,
      "byteLength": 7056,
      "byteOffset": 121200,
      "target": 34962,
      "byteStride": 12
    },
    {
      "buffer": 0,
      "byteLength": 4704,
      "byteOffset": 128256,
      "target": 34962,
      "byteStride": 8
    },
    {
      "buffer": 0,
      "byteLength": 1560,
      "byteOffset": 132960,
      "target": 34963
    }
  ],
  "samplers": [
    {
      "magFilter": 9728,
      "minFilter": 9984,
      "wrapS": 33071,
      "wrapT": 33071
    }
  ],
  "buffers": [
    {
      "name": "Q386PXB5PY8XG_oldbutbetter",
      "byteLength": 134520,
      "uri": "Q386PXB5PY8XG_oldbutbetter.bin"
    }
  ]
}
